<?xml version="1.0" encoding="UTF-8" standalone="no"?> <svg xmlns="http://www.w3.org/2000/svg" viewBox="0 0 64 64"><defs><style>.cls-1{fill:#ffffff;}</style></defs><title>Asset 40</title><g id="Layer_2" data-name="Layer 2"><g id="Layer_1-2" data-name="Layer 1"><path class="cls-1" d="M52.24,33.71,33.52,52.49a2.67,2.67,0,0,1-3.78-3.76L43.81,34.61H2.67a2.67,2.67,0,1,1,0-5.33H44L29.75,15.17a2.67,2.67,0,0,1,3.76-3.79L52.23,29.93a2.67,2.67,0,0,1,0,3.78Z"/><path class="cls-1" d="M64,56V8a8,8,0,0,0-8-8H37.33a2.67,2.67,0,0,0,0,5.33H56A2.67,2.67,0,0,1,58.67,8V56A2.67,2.67,0,0,1,56,58.67H37.33a2.67,2.67,0,0,0,0,5.33H56A8,8,0,0,0,64,56Z"/></g></g></svg>
